{"accessors" : [{"bufferView" : 0, "byteOffset" : 0, "componentType" : 5123, "count" : 43776, "type" : "SCALAR", "max" : [36201], "min" : [0]}, {"bufferView" : 1, "byteOffset" : 0, "componentType" : 5126, "count" : 36202, "type" : "VEC3", "max" : [0.9497529864311218, 3.115138053894043, 0.7471659779548645], "min" : [-0.9497529864311218, 0.03141200169920921, -0.8342790007591248], "name" : "POSITION"}, {"bufferView" : 1, "byteOffset" : 12, "componentType" : 5126, "count" : 36202, "type" : "VEC2", "max" : [0.9894000291824341, -0.009889000095427036], "min" : [0.013772999867796898, -0.9786109924316406], "name" : "TEXCOORD_0"}, {"bufferView" : 1, "byteOffset" : 20, "componentType" : 5126, "count" : 36202, "type" : "VEC3", "max" : [1.0000044107437134, 0.9996610879898071, 1.0000042915344238], "min" : [-1.0000044107437134, -1.0000041723251343, -1.0000044107437134], "name" : "NORMAL"}], "asset" : {"generator" : "Aspose.3D 22.7", "version" : "2.0"}, "buffers" : [{"uri" : "data:application/octet-stream;base64,", "byteLength" : 1488392}], "bufferViews" : [{"buffer" : 0, "byteOffset" : 0, "byteLength" : 87552, "target" : 34963}, {"buffer" : 0, "byteOffset" : 87556, "byteLength" : 1400832, "byteStride" : 32, "target" : 34962}], "meshes" : [{"primitives" : [{"attributes" : {"POSITION" : 1, "TEXCOORD_0" : 2, "NORMAL" : 3}, "indices" : 0, "mode" : 4}], "name" : ""}], "nodes" : [{"mesh" : 0, "name" : "HP_Sphere.006"}], "scene" : 0, "scenes" : [{"nodes" : [0]}]}