ply
format ascii 1.0
comment Created by Blender 3.2.2 - www.blender.org
element vertex 14
property float x
property float y
property float z
property float nx
property float ny
property float nz
property float s
property float t
element face 12
property list uchar uint vertex_indices
end_header
22.654745 -9.788340 -22.654745 -0.577350 0.577350 0.577350 0.625000 0.250000
-22.654745 -2.434775 -22.654745 0.577350 -0.577350 0.577350 0.375000 0.000000
-22.654745 -9.788340 -22.654745 0.577350 0.577350 0.577350 0.625000 0.000000
-22.654745 -2.434775 22.654745 0.577350 -0.577350 -0.577350 0.375000 0.750000
22.654745 -2.434775 -22.654745 -0.577350 -0.577350 0.577350 0.125000 0.500000
22.654745 -2.434775 22.654745 -0.577350 -0.577350 -0.577350 0.375000 0.500000
-22.654745 -9.788340 22.654745 0.577350 0.577350 -0.577350 0.625000 0.750000
22.654745 -9.788340 22.654745 -0.577350 0.577350 -0.577350 0.625000 0.500000
22.654745 -2.434775 -22.654745 -0.577350 -0.577350 0.577350 0.375000 0.250000
-22.654745 -9.788340 -22.654745 0.577350 0.577350 0.577350 0.875000 0.750000
22.654745 -9.788340 -22.654745 -0.577350 0.577350 0.577350 0.875000 0.500000
-22.654745 -9.788340 -22.654745 0.577350 0.577350 0.577350 0.625000 1.000000
-22.654745 -2.434775 -22.654745 0.577350 -0.577350 0.577350 0.125000 0.750000
-22.654745 -2.434775 -22.654745 0.577350 -0.577350 0.577350 0.375000 1.000000
3 0 1 2
3 3 4 5
3 6 5 7
3 7 8 0
3 9 7 10
3 11 3 6
3 0 8 1
3 3 12 4
3 6 3 5
3 7 5 8
3 9 6 7
3 11 13 3
