ply
format ascii 1.0
comment Created by Blender 3.2.2 - www.blender.org
element vertex 14
property float x
property float y
property float z
property float nx
property float ny
property float nz
property float s
property float t
element face 12
property list uchar uint vertex_indices
end_header
12.539554 6.789372 -9.635487 0.577350 0.577350 -0.577350 0.625000 0.000000
12.539554 2.086008 -8.620135 0.577350 -0.577350 0.577350 0.375000 0.250000
12.539554 2.086008 -9.635487 0.577350 -0.577350 -0.577350 0.375000 0.000000
12.539554 6.789372 -8.620135 0.577350 0.577350 0.577350 0.625000 0.250000
-1.705134 2.086008 -8.620135 -0.577350 -0.577350 0.577350 0.375000 0.500000
-1.705134 6.789372 -8.620135 -0.577350 0.577350 0.577350 0.625000 0.500000
-1.705134 2.086008 -9.635487 -0.577350 -0.577350 -0.577350 0.375000 0.750000
-1.705134 6.789372 -9.635487 -0.577350 0.577350 -0.577350 0.625000 0.750000
12.539554 2.086008 -9.635487 0.577350 -0.577350 -0.577350 0.375000 1.000000
12.539554 2.086008 -9.635487 0.577350 -0.577350 -0.577350 0.125000 0.750000
12.539554 2.086008 -8.620135 0.577350 -0.577350 0.577350 0.125000 0.500000
12.539554 6.789372 -8.620135 0.577350 0.577350 0.577350 0.875000 0.500000
12.539554 6.789372 -9.635487 0.577350 0.577350 -0.577350 0.625000 1.000000
12.539554 6.789372 -9.635487 0.577350 0.577350 -0.577350 0.875000 0.750000
3 0 1 2
3 3 4 1
3 5 6 4
3 7 8 6
3 4 9 10
3 11 7 5
3 0 3 1
3 3 5 4
3 5 7 6
3 7 12 8
3 4 6 9
3 11 13 7
