{
    "asset" : {
        "generator" : "Khronos glTF Blender I/O v3.2.43",
        "version" : "2.0"
    },
    "scene" : 1,
    "scenes" : [
        {
            "name" : "Scene",
            "nodes" : [
                0,
                1,
                2
            ]
        },
        {
            "name" : "Scene",
            "nodes" : [
                3
            ]
        }
    ],
    "nodes" : [
        {
            "mesh" : 0,
            "name" : "Floor",
            "scale" : [
                50,
                0.10000000149011612,
                50
            ],
            "translation" : [
                0,
                -0.10000000149011612,
                0
            ]
        },
        {
            "mesh" : 1,
            "name" : "Fence",
            "scale" : [
                0.3999713063240051,
                0.3999713063240051,
                0.3999713063240051
            ],
            "translation" : [
                -4.267143726348877,
                0.4000000059604645,
                16.68848419189453
            ]
        },
        {
            "mesh" : 2,
            "name" : "Chao",
            "rotation" : [
                -0.999224066734314,
                0,
                0,
                0.03938673436641693
            ],
            "translation" : [
                2.474508285522461,
                2.3959603309631348,
                10.628458023071289
            ]
        },
        {
            "mesh" : 3,
            "name" : "Cube",
            "scale" : [
                -2.667968511581421,
                -2.667968511581421,
                -2.667968511581421
            ],
            "translation" : [
                0,
                10.832893371582031,
                0
            ]
        }
    ],
    "materials" : [
        {
            "doubleSided" : true,
            "name" : "Floor",
            "pbrMetallicRoughness" : {
                "baseColorFactor" : [
                    0.800000011920929,
                    0.800000011920929,
                    0.800000011920929,
                    1
                ],
                "metallicFactor" : 0,
                "roughnessFactor" : 0.4000000059604645
            }
        },
        {
            "doubleSided" : true,
            "name" : "Fence",
            "pbrMetallicRoughness" : {
                "baseColorTexture" : {
                    "index" : 0
                },
                "metallicFactor" : 0,
                "roughnessFactor" : 0.5
            }
        },
        {
            "doubleSided" : true,
            "name" : "Chao",
            "pbrMetallicRoughness" : {
                "baseColorTexture" : {
                    "index" : 1
                },
                "metallicFactor" : 0,
                "roughnessFactor" : 0.4000000059604645
            }
        },
        {
            "doubleSided" : true,
            "name" : "Material",
            "pbrMetallicRoughness" : {
                "metallicFactor" : 0,
                "roughnessFactor" : 0.4000000059604645
            }
        }
    ],
    "meshes" : [
        {
            "name" : "Floor",
            "primitives" : [
                {
                    "attributes" : {
                        "POSITION" : 0,
                        "NORMAL" : 1,
                        "TEXCOORD_0" : 2
                    },
                    "indices" : 3,
                    "material" : 0
                }
            ]
        },
        {
            "name" : "Fence",
            "primitives" : [
                {
                    "attributes" : {
                        "POSITION" : 4,
                        "NORMAL" : 5,
                        "TEXCOORD_0" : 6
                    },
                    "indices" : 7,
                    "material" : 1
                }
            ]
        },
        {
            "name" : "Chao",
            "primitives" : [
                {
                    "attributes" : {
                        "POSITION" : 8,
                        "NORMAL" : 9,
                        "TEXCOORD_0" : 10
                    },
                    "indices" : 11,
                    "material" : 2
                }
            ]
        },
        {
            "name" : "Cube",
            "primitives" : [
                {
                    "attributes" : {
                        "POSITION" : 12,
                        "NORMAL" : 13,
                        "TEXCOORD_0" : 14
                    },
                    "indices" : 15,
                    "material" : 3
                }
            ]
        }
    ],
    "textures" : [
        {
            "sampler" : 0,
            "source" : 0
        },
        {
            "sampler" : 0,
            "source" : 1
        }
    ],
    "images" : [
        {
            "bufferView" : 8,
            "mimeType" : "image/jpeg",
            "name" : "wood"
        },
        {
            "bufferView" : 13,
            "mimeType" : "image/png",
            "name" : "Cube"
        }
    ],
    "accessors" : [
        {
            "bufferView" : 0,
            "componentType" : 5126,
            "count" : 24,
            "max" : [
                1,
                0.04632413387298584,
                1
            ],
            "min" : [
                -1,
                -7.307240009307861,
                -1
            ],
            "type" : "VEC3"
        },
        {
            "bufferView" : 1,
            "componentType" : 5126,
            "count" : 24,
            "type" : "VEC3"
        },
        {
            "bufferView" : 2,
            "componentType" : 5126,
            "count" : 24,
            "type" : "VEC2"
        },
        {
            "bufferView" : 3,
            "componentType" : 5123,
            "count" : 36,
            "type" : "SCALAR"
        },
        {
            "bufferView" : 4,
            "componentType" : 5126,
            "count" : 90,
            "max" : [
                26.270706176757812,
                14.45920181274414,
                1
            ],
            "min" : [
                -1,
                -68.6630630493164,
                -28.500938415527344
            ],
            "type" : "VEC3"
        },
        {
            "bufferView" : 5,
            "componentType" : 5126,
            "count" : 90,
            "type" : "VEC3"
        },
        {
            "bufferView" : 6,
            "componentType" : 5126,
            "count" : 90,
            "type" : "VEC2"
        },
        {
            "bufferView" : 7,
            "componentType" : 5123,
            "count" : 456,
            "type" : "SCALAR"
        },
        {
            "bufferView" : 9,
            "componentType" : 5126,
            "count" : 412,
            "max" : [
                1.1005045175552368,
                1.6717039346694946,
                0.8395062685012817
            ],
            "min" : [
                -1.1005045175552368,
                -0.8395062685012817,
                -0.8685216903686523
            ],
            "type" : "VEC3"
        },
        {
            "bufferView" : 10,
            "componentType" : 5126,
            "count" : 412,
            "type" : "VEC3"
        },
        {
            "bufferView" : 11,
            "componentType" : 5126,
            "count" : 412,
            "type" : "VEC2"
        },
        {
            "bufferView" : 12,
            "componentType" : 5123,
            "count" : 684,
            "type" : "SCALAR"
        },
        {
            "bufferView" : 14,
            "componentType" : 5126,
            "count" : 206,
            "max" : [
                1.1005045175552368,
                1.6717039346694946,
                0.8395062685012817
            ],
            "min" : [
                -0.08084000647068024,
                -0.8395062685012817,
                -0.8685216903686523
            ],
            "type" : "VEC3"
        },
        {
            "bufferView" : 15,
            "componentType" : 5126,
            "count" : 206,
            "type" : "VEC3"
        },
        {
            "bufferView" : 16,
            "componentType" : 5126,
            "count" : 206,
            "type" : "VEC2"
        },
        {
            "bufferView" : 17,
            "componentType" : 5123,
            "count" : 342,
            "type" : "SCALAR"
        }
    ],
    "bufferViews" : [
        {
            "buffer" : 0,
            "byteLength" : 288,
            "byteOffset" : 0
        },
        {
            "buffer" : 0,
            "byteLength" : 288,
            "byteOffset" : 288
        },
        {
            "buffer" : 0,
            "byteLength" : 192,
            "byteOffset" : 576
        },
        {
            "buffer" : 0,
            "byteLength" : 72,
            "byteOffset" : 768
        },
        {
            "buffer" : 0,
            "byteLength" : 1080,
            "byteOffset" : 840
        },
        {
            "buffer" : 0,
            "byteLength" : 1080,
            "byteOffset" : 1920
        },
        {
            "buffer" : 0,
            "byteLength" : 720,
            "byteOffset" : 3000
        },
        {
            "buffer" : 0,
            "byteLength" : 912,
            "byteOffset" : 3720
        },
        {
            "buffer" : 0,
            "byteLength" : 1270672,
            "byteOffset" : 4632
        },
        {
            "buffer" : 0,
            "byteLength" : 4944,
            "byteOffset" : 1275304
        },
        {
            "buffer" : 0,
            "byteLength" : 4944,
            "byteOffset" : 1280248
        },
        {
            "buffer" : 0,
            "byteLength" : 3296,
            "byteOffset" : 1285192
        },
        {
            "buffer" : 0,
            "byteLength" : 1368,
            "byteOffset" : 1288488
        },
        {
            "buffer" : 0,
            "byteLength" : 31535,
            "byteOffset" : 1289856
        },
        {
            "buffer" : 0,
            "byteLength" : 2472,
            "byteOffset" : 1321392
        },
        {
            "buffer" : 0,
            "byteLength" : 2472,
            "byteOffset" : 1323864
        },
        {
            "buffer" : 0,
            "byteLength" : 1648,
            "byteOffset" : 1326336
        },
        {
            "buffer" : 0,
            "byteLength" : 684,
            "byteOffset" : 1327984
        }
    ],
    "samplers" : [
        {
            "magFilter" : 9729,
            "minFilter" : 9987
        }
    ],
    "buffers" : [
        {
            "byteLength" : 1328668,
            "uri" : "data:application/octet-stream;base64,"
        }
    ]
}
